<svg width="64" height="64" viewBox="0 0 64 64" fill="none" xmlns="http://www.w3.org/2000/svg">
<g clip-path="url(#clip0_3346_7523)">
<path d="M32.0001 3.55469C26.3743 3.55469 20.8749 5.22292 16.1972 8.34844C11.5196 11.474 7.87377 15.9164 5.72088 21.1139C3.56799 26.3115 3.00469 32.0307 4.10223 37.5484C5.19976 43.066 7.90883 48.1344 11.8869 52.1124C15.8649 56.0904 20.9332 58.7995 26.4509 59.897C31.9686 60.9946 37.6878 60.4313 42.8853 58.2784C48.0829 56.1255 52.5253 52.4797 55.6508 47.802C58.7763 43.1244 60.4446 37.6249 60.4446 31.9991C60.4446 24.4552 57.4477 17.2202 52.1134 11.8859C46.779 6.5515 39.5441 3.55469 32.0001 3.55469ZM32.0001 56.888C27.0776 56.888 22.2656 55.4283 18.1726 52.6935C14.0796 49.9587 10.8896 46.0715 9.00579 41.5237C7.12201 36.9758 6.62912 31.9715 7.58947 27.1435C8.54981 22.3156 10.9202 17.8808 14.401 14.4C17.8818 10.9193 22.3166 8.54882 27.1445 7.58848C31.9725 6.62813 36.9768 7.12102 41.5247 9.0048C46.0725 10.8886 49.9596 14.0786 52.6945 18.1716C55.4293 22.2646 56.889 27.0766 56.889 31.9991C56.889 38.6001 54.2668 44.9307 49.5992 49.5982C44.9316 54.2658 38.6011 56.888 32.0001 56.888Z" fill="black"/>
<path d="M49.7776 21.5131C49.4445 21.1819 48.9939 20.9961 48.5242 20.9961C48.0546 20.9961 47.604 21.1819 47.2709 21.5131L27.5376 41.1575L16.8709 30.4908C16.5456 30.1396 16.094 29.9319 15.6156 29.9136C15.1372 29.8953 14.671 30.0677 14.3198 30.3931C13.9685 30.7184 13.7609 31.1699 13.7425 31.6484C13.7242 32.1268 13.8967 32.5929 14.222 32.9442L27.5376 46.2242L49.7776 24.0375C49.9442 23.8722 50.0764 23.6756 50.1667 23.459C50.257 23.2423 50.3034 23.01 50.3034 22.7753C50.3034 22.5406 50.257 22.3082 50.1667 22.0916C50.0764 21.875 49.9442 21.6783 49.7776 21.5131Z" fill="black"/>
</g>
<defs>
<clipPath id="clip0_3346_7523">
<rect width="64" height="64" fill="white"/>
</clipPath>
</defs>
</svg>
